<?xml version="1.0" standalone="no"?>
<!DOCTYPE svg PUBLIC "-//W3C//DTD SVG 20010904//EN"
 "http://www.w3.org/TR/2001/REC-SVG-20010904/DTD/svg10.dtd">
<svg version="1.0" xmlns="http://www.w3.org/2000/svg"
 width="300.000000pt" height="300.000000pt" viewBox="0 0 300.000000 300.000000"
 preserveAspectRatio="xMidYMid meet">
<metadata>
Created by potrace 1.11, written by Peter Selinger 2001-2013
</metadata>
<g transform="translate(0.000000,300.000000) scale(0.100000,-0.100000)"
fill="#000000" stroke="none">
<path d="M776 2549 c-98 -247 -176 -452 -174 -454 2 -2 26 52 53 120 27 68 51
122 53 120 2 -2 -19 -61 -47 -131 -29 -70 -48 -130 -44 -133 4 -3 10 -15 11
-26 2 -11 8 -22 13 -23 5 -2 7 -8 3 -13 -3 -5 -1 -9 3 -9 5 0 9 -10 10 -22 1
-11 8 -25 15 -29 7 -5 9 -9 5 -9 -4 0 -3 -9 3 -21 7 -11 10 -23 7 -25 -2 -3
-24 40 -47 96 -43 99 -70 127 -70 73 0 -16 47 -136 104 -268 l104 -240 44 -6
c23 -3 36 -7 27 -7 -30 -3 -77 -68 -89 -124 -10 -45 -10 -64 4 -118 18 -71 99
-302 207 -589 76 -203 76 -184 7 -257 -34 -36 -38 -44 -29 -67 l10 -26 132 44
c73 25 134 47 136 49 11 10 -24 141 -124 466 -58 190 -108 351 -111 359 -4 11
2 13 29 7 125 -27 258 -47 374 -57 133 -11 134 -11 189 14 42 20 65 39 100 86
82 112 116 249 116 472 0 77 4 140 10 144 5 3 7 12 3 20 -3 8 0 15 7 15 6 0 8
-5 4 -11 -4 -7 -3 -10 3 -8 27 11 1172 653 1169 656 -1 2 -77 -38 -167 -88
-233 -129 -276 -152 -258 -137 9 7 109 64 223 127 l206 115 0 183 0 183 -1012
-2 -1013 -3 -39 -98 c-21 -54 -40 -96 -42 -94 -3 2 13 47 34 101 22 53 36 96
33 96 -3 0 -86 -203 -185 -451z m726 306 c15 -16 28 -34 28 -42 0 -7 5 -13 11
-13 5 0 7 -5 3 -11 -4 -8 -14 2 -26 24 -22 44 -50 60 -94 55 -31 -4 -41 1 -30
13 2 2 21 4 42 3 27 -1 46 -9 66 -29z m-157 -4 c-3 -6 -11 -11 -17 -11 -6 0
-6 6 2 15 14 17 26 13 15 -4z m-50 -11 c3 -5 2 -10 -4 -10 -6 0 -21 -12 -35
-27 -24 -26 -25 -26 -19 -4 3 13 14 26 24 28 11 3 16 9 13 14 -3 5 -1 9 5 9 5
0 13 -4 16 -10z m-431 -124 c-14 -37 -28 -65 -30 -63 -2 2 8 33 23 70 14 37
28 65 30 63 2 -2 -8 -34 -23 -70z m366 14 c0 -22 -3 -40 -8 -40 -4 0 -6 18 -4
40 2 22 6 40 8 40 2 0 4 -18 4 -40z m351 1 c9 -17 15 -41 12 -52 -7 -25 -10
-22 -16 16 -7 43 -18 66 -28 59 -5 -3 -9 0 -9 6 0 21 25 4 41 -29z m-142 -26
c23 -14 49 -25 57 -25 8 0 14 -4 14 -9 0 -11 53 -33 70 -29 8 2 15 -5 16 -15
2 -15 1 -15 -3 -1 -4 14 -7 14 -13 3 -5 -7 -4 -21 2 -32 5 -10 7 -22 3 -25 -3
-3 -8 3 -11 14 -6 23 -40 47 -54 39 -14 -9 -12 -52 2 -61 7 -5 30 -8 52 -8 35
-1 43 -6 68 -41 39 -56 78 -126 78 -139 0 -6 -14 13 -30 43 -17 30 -37 62 -45
71 -8 9 -15 21 -15 27 0 6 -8 17 -17 24 -16 13 -17 12 -5 -3 12 -15 10 -25
-10 -70 -29 -63 -76 -121 -92 -115 -9 4 -11 -12 -8 -55 3 -45 1 -59 -7 -54 -8
5 -10 41 -7 118 3 69 -1 144 -9 196 -8 47 -12 89 -9 94 3 4 -9 16 -26 26 -18
9 -42 25 -54 34 -33 27 1 22 53 -7z m118 3 c-3 -8 -6 -5 -6 6 -1 11 2 17 5 13
3 -3 4 -12 1 -19z m-132 -32 c14 -10 19 -27 20 -66 0 -62 -15 -78 -105 -109
l-55 -20 -6 92 c-4 51 -4 95 0 99 18 19 122 22 146 4z m-161 -53 c3 -25 5 -62
5 -82 -1 -20 -5 -3 -10 38 -5 40 -14 80 -20 88 -9 11 -9 12 3 8 9 -4 18 -25
22 -52z m-459 -58 c-36 -85 -43 -79 -8 8 14 37 28 65 31 62 2 -2 -8 -34 -23
-70z m-56 -142 c-21 -54 -52 -105 -35 -58 32 85 50 125 54 121 2 -3 -6 -31
-19 -63z m596 7 c9 -16 11 -30 6 -30 -5 0 -11 8 -15 18 -3 9 -9 23 -12 30 -12
26 6 10 21 -18z m135 -53 c0 -7 -4 -6 -10 3 -6 9 -10 11 -10 3 0 -7 -7 -10
-17 -6 -10 4 -14 2 -10 -4 4 -6 -7 -9 -29 -8 -46 3 -56 15 -13 16 19 0 43 4
54 8 23 10 35 5 35 -12z m1060 -8 c-25 -17 -76 -42 -68 -34 13 14 62 44 73 44
6 0 3 -4 -5 -10z m-795 -38 c8 -17 11 -32 6 -35 -5 -3 -11 2 -14 12 -2 9 -8
25 -12 35 -12 28 3 19 20 -12z m705 -12 c-25 -17 -76 -42 -68 -34 13 14 62 44
73 44 6 0 3 -4 -5 -10z m-665 -121 c2 -10 0 -18 -4 -18 -5 0 -12 16 -15 36 -4
19 -9 43 -12 52 -2 9 3 1 12 -18 9 -19 18 -43 19 -52z m575 71 c-25 -17 -76
-42 -68 -34 13 14 62 44 73 44 6 0 3 -4 -5 -10z m-90 -50 c-25 -17 -76 -42
-68 -34 13 14 62 44 73 44 6 0 3 -4 -5 -10z m-780 -11 c1 -49 -25 -288 -31
-288 -8 0 -6 36 8 150 4 36 7 84 7 108 0 23 4 42 8 42 5 0 8 -6 8 -12z m690
-39 c-25 -17 -76 -42 -68 -34 13 14 62 44 73 44 6 0 3 -4 -5 -10z m-375 -87
c-8 -9 -12 1 -18 48 l-6 45 15 -44 c7 -25 12 -47 9 -49z m285 37 c-25 -17 -76
-42 -68 -34 13 14 62 44 73 44 6 0 3 -4 -5 -10z m-90 -50 c-25 -17 -76 -42
-68 -34 13 14 62 44 73 44 6 0 3 -4 -5 -10z m-184 -39 c2 -16 -1 -30 -6 -30
-6 0 -10 17 -10 37 0 42 11 38 16 -7z m94 -11 c-25 -17 -76 -42 -68 -34 13 14
62 44 73 44 6 0 3 -4 -5 -10z m-428 -211 c-6 -24 -19 -39 -50 -56 -23 -13 -42
-21 -42 -18 0 3 17 14 39 25 40 21 49 41 53 120 l1 36 4 -37 c2 -20 0 -51 -5
-70z m138 91 c48 -10 50 -12 50 -44 0 -43 -42 -209 -70 -274 -27 -61 -70 -101
-111 -101 -41 0 -137 34 -230 81 -57 28 -91 39 -124 39 -25 0 -57 7 -71 16
-23 15 -28 15 -67 0 -54 -20 -57 -20 -57 3 0 28 46 78 91 102 l39 19 114 -39
c96 -32 118 -36 133 -26 10 7 54 32 97 55 l79 44 -6 -65 c-3 -35 -2 -57 3 -49
10 20 28 109 36 188 7 70 7 70 94 51z m-913 -31 c0 -7 4 -22 7 -33 5 -13 2
-12 -8 5 -17 29 -20 40 -8 40 5 0 9 -6 9 -12z m30 -70 c0 -7 4 -22 7 -33 5
-13 2 -12 -8 5 -17 29 -20 40 -8 40 5 0 9 -6 9 -12z m313 -52 c0 -2 -19 -15
-43 -29 -24 -15 -52 -42 -65 -66 -23 -41 -24 -41 -81 -41 l-58 0 -23 53 c-12
28 -24 58 -27 65 -3 6 1 12 8 12 7 0 10 -3 6 -6 -3 -4 0 -19 9 -35 8 -16 15
-32 15 -36 3 -31 22 -43 69 -43 47 0 51 2 76 40 25 38 114 105 114 86z m330
-21 c0 -2 -18 -14 -40 -25 -22 -11 -40 -18 -40 -15 0 2 17 13 38 24 42 23 42
23 42 16z m-333 -111 c-3 -3 -12 -4 -19 -1 -8 3 -5 6 6 6 11 1 17 -2 13 -5z"/>
<path d="M1880 1250 c-157 -16 -343 -33 -415 -39 -71 -6 -143 -13 -160 -16
l-30 -5 3 -77 c1 -43 9 -213 17 -378 8 -165 16 -325 17 -355 l2 -55 -74 3
c-41 1 -91 5 -112 8 l-36 5 -6 -63 c-3 -35 -8 -111 -12 -170 l-6 -108 470 0
471 0 0 140 1 140 -33 1 c-92 1 -578 37 -584 42 -3 4 5 7 18 7 55 1 839 77
844 82 6 5 -30 711 -41 811 -6 50 -9 57 -28 56 -11 -1 -149 -14 -306 -29z
m-350 -135 c0 -26 -22 -39 -39 -22 -22 22 -2 61 25 50 8 -3 14 -15 14 -28z
m-82 -8 c3 -22 -1 -27 -17 -27 -15 0 -21 6 -21 23 0 46 33 49 38 4z m-74 8 c8
-21 -3 -45 -20 -45 -8 0 -17 7 -20 15 -8 21 2 45 20 45 7 0 16 -7 20 -15z
m786 -195 c0 -16 -1 -30 -2 -30 -2 0 -97 -9 -212 -20 -116 -11 -211 -19 -212
-17 -1 1 -4 16 -6 32 l-3 30 170 16 c94 9 191 17 218 18 46 1 47 0 47 -29z
m29 -374 c13 -16 -5 -70 -20 -60 -5 3 -5 14 1 24 7 13 7 21 0 25 -12 8 -13 25
-1 25 5 0 14 -6 20 -14z m-1014 -307 c0 -28 -29 -38 -39 -13 -7 19 11 47 28
41 6 -2 11 -14 11 -28z m83 -3 c2 -10 -1 -23 -7 -29 -15 -15 -46 16 -37 38 8
21 40 15 44 -9z m72 9 c15 -18 6 -45 -15 -45 -18 0 -30 24 -21 45 7 19 20 19
36 0z"/>
<path d="M1143 403 c-40 -13 -73 -28 -73 -32 0 -7 158 44 169 55 10 10 -28 1
-96 -23z"/>
<path d="M0 120 l0 -120 170 0 170 0 0 120 0 120 -170 0 -170 0 0 -120z"/>
</g>
</svg>
